,
  Hottest scene tracker on the net !!!   http://www.scenetime.com
 
         Please seed back after your download is completed

           Credit goes  to all seeders and  http://www.scenetime.com
 



...................................NFO:.................................................*******************************************************************************
                Freebie.and.the.Bean.1974.DVDRip.AC3.X264-BARC0DE
*******************************************************************************

-------------------------------------------------------------------------------
                              General Information
-------------------------------------------------------------------------------
Type.................: Movie
Name.................: Freebie and the Bean 
Movie Information....: http://www.imdb.com/title/tt0071521/
Genre................: Action | Comedy | Crime | Drama
-------------------------------------------------------------------------------
                                    PLOT
-------------------------------------------------------------------------------
Freebie and Bean, two San Francisco police detectives, have one goal in life: to 
bring down Red Meyers, a local hijacking boss. After many fruitless months they 
finally collect an important piece of evidence. However, before they can get an 
arrest warrant, they hear the news of the hitman being hired to kill Meyers.

-------------------------------------------------------------------------------
                                    CAST
-------------------------------------------------------------------------------
Alan Arkin	... 	Bean
James Caan	... 	Freebie
Loretta Swit	... 	Meyers' Wife
Jack Kruschen	... 	Red Meyers
Mike Kellin	... 	Lt. Rosen
Paul Koslo	... 	Whitey
Linda Marsh	... 	Freebie's Girl
John Garwood	... 	Chauffeur
Alex Rocco	... 	D.A.
Valerie Harper	... 	Bean's Wife
Christopher Morley	... 	Transvestite
Bruce Mackey	... 	Floorwalker
Monty Stickles	... 	Texas Brawler

-------------------------------------------------------------------------------
                                    MEDiA iNFO
-------------------------------------------------------------------------------

General
Complete name                    : Freebie.and.the.Bean.1974.DVDRip.AC3.X264-BARC0DE.mkv
Format                           : Matroska
File size                        : 1.46 GiB
Duration                         : 1h 53mn
Overall bit rate                 : 1 852 Kbps


Video
ID                               : 1
Format                           : AVC
Format/Info                      : Advanced Video Codec
Format profile                   : Main@L3.0
Format settings, CABAC           : No
Format settings, ReFrames        : 2 frames
Muxing mode                      : Container profile=Unknown@3.0
Codec ID                         : V_MPEG4/ISO/AVC
Duration                         : 1h 53mn
Bit rate                         : 1 655 Kbps
Width                            : 720 pixels
Height                           : 304 pixels
Display aspect ratio             : 2.35:1
Frame rate                       : 23.976 fps
Color space                      : YUV
Chroma subsampling               : 4:2:0
Bit depth                        : 8 bits
Scan type                        : Progressive
Bits/(Pixel*Frame)               : 0.315
Stream size                      : 1.28 GiB (88%)
Writing library                  : x264 core 79


Audio
ID                               : 2
Format                           : AC-3
Format/Info                      : Audio Coding 3
Mode extension                   : CM (complete main)
Codec ID                         : A_AC3
Duration                         : 1h 53mn
Bit rate mode                    : Constant
Bit rate                         : 192 Kbps
Channel(s)                       : 2 channels
Channel positions                : Front: L R
Sampling rate                    : 48.0 KHz
Stream size                      : 155 MiB (10%)
Language                         : English

Menu
00:00:00.000                     : Chapter 1
00:10:01.069                     : Chapter 2
00:20:01.169                     : Chapter 3
00:30:01.769                     : Chapter 4
00:40:02.869                     : Chapter 5
00:50:02.969                     : Chapter 6
01:00:04.069                     : Chapter 7
01:10:04.169                     : Chapter 8
01:20:04.769                     : Chapter 9
01:30:05.869                     : Chapter 10
01:40:05.969                     : Chapter 11
01:50:07.069                     : Chapter 12